<svg xmlns="http://www.w3.org/2000/svg" version="1.1" xmlns:xlink="http://www.w3.org/1999/xlink" xmlns:svgjs="http://svgjs.com/svgjs" width="1400" height="350" preserveAspectRatio="none" viewBox="0 0 1400 350"><g mask="url(&quot;#SvgjsMask1038&quot;)" fill="none"><rect width="1400" height="350" x="0" y="0" fill="rgba(165, 201, 202, 1)"></rect><path d="M1547.11 281.77C1360.7 281.23 1101.11 152.51 813.42 148.77 525.72 145.03 551.25-48.21 446.57-54.89" stroke="rgba(57, 91, 100, 0.66)" stroke-width="2"></path><path d="M1599.71 290.72C1495.52 290.66 1392.48 246.97 1185.24 246.97 978.01 246.97 989.86 294.65 770.78 290.72 551.7 286.79 487.13-18.62 356.31-37.71" stroke="rgba(57, 91, 100, 0.66)" stroke-width="2"></path><path d="M1599.62 314.54C1424.89 314.3 1263.75 218.97 907.6 216.54 551.46 214.11 398.64-19.74 215.59-23.1" stroke="rgba(57, 91, 100, 0.66)" stroke-width="2"></path><path d="M1657.72 242.84C1511.65 242.32 1309.6 133.97 1084.29 130.84 858.97 127.71 879.18-21.49 797.57-26.55" stroke="rgba(57, 91, 100, 0.66)" stroke-width="2"></path><path d="M1606.13 119.39C1448.07 119.69 1296.94 217.83 981.52 217.39 666.1 216.95 527.4-51.38 356.91-57.36" stroke="rgba(57, 91, 100, 0.66)" stroke-width="2"></path></g><defs><mask id="SvgjsMask1038"><rect width="1400" height="350" fill="#ffffff"></rect></mask></defs></svg>