<svg xmlns="http://www.w3.org/2000/svg" version="1.1" xmlns:xlink="http://www.w3.org/1999/xlink" xmlns:svgjs="http://svgjs.com/svgjs" width="1440" height="560" preserveAspectRatio="none" viewBox="0 0 1440 560"><g mask="url(&quot;#SvgjsMask1009&quot;)" fill="none"><rect width="1440" height="560" x="0" y="0" fill="rgba(165, 201, 202, 1)"></rect><path d="M0,447.845C82.975,451.078,145.929,379.723,220.315,342.817C305.857,300.376,413.899,291.912,470.018,214.65C528.999,133.448,533.963,24.524,524.05,-75.347C513.847,-178.148,483.523,-282.366,413.178,-358.021C343.87,-432.56,244.368,-485.453,142.586,-485.604C47.839,-485.744,-16.55,-391.828,-105.35,-358.789C-185.154,-329.097,-292.813,-366.386,-349.238,-302.616C-405.607,-238.909,-363.573,-138.211,-375.094,-53.93C-386.507,29.565,-450.266,113.001,-416.609,190.259C-382.962,267.495,-281.208,281.763,-209.551,326.068C-139.415,369.432,-82.396,444.635,0,447.845" fill="#77adaf"></path><path d="M1440 914.855C1511.675 922.405 1590.799 927.867 1649.958 886.701 1708.684 845.836 1717.624 765.436 1747.891 700.609 1778.462 635.131 1839.362 575.584 1828.575 504.131 1817.7930000000001 432.709 1745.934 390.02 1693.504 340.337 1646.045 295.364 1598.325 252.00099999999998 1537.4180000000001 228.22500000000002 1472.44 202.86 1396.763 169.019 1334.3319999999999 200.12900000000002 1271.34 231.519 1280.073 328.336 1232.477 380.18100000000004 1182.567 434.547 1067.511 431.919 1054.801 504.617 1042.231 576.513 1143.095 615.809 1180.304 678.599 1212.102 732.259 1210.529 803.297 1256.667 845.271 1306.017 890.1669999999999 1373.651 907.866 1440 914.855" fill="#d3e5e5"></path></g><defs><mask id="SvgjsMask1009"><rect width="1440" height="560" fill="#ffffff"></rect></mask></defs></svg>